# xmcd
# Copyright (c) 1998 CDDB Inc.
#
# Track frame offsets:
#	150
#	13510
#	30170
#	37071
#	51142
#	69808
#	90441
#	102491
#	114860
#	124720
#	136419
#	142671
#	157203
#	168232
#
# Disc length: 2439 seconds
#
# Revision: 1
# Processed by: cddbd v1.4PL0 Copyright (c) Steve Scherf et al.
# Submitted via: audiograbber 1.70
#
DISCID=a809850e
DTITLE=thebone - mix tape
DYEAR=1900
DGENRE=
TTITLE0=azad diss feat. kbp
TTITLE1=der bleistift
TTITLE2=ihr da drauﬂen
TTITLE3=weed (freestyle)
TTITLE4=freestyle (zuu high)
TTITLE5=funky rocker
TTITLE6=so def (uncensored) feat. pps-crew
TTITLE7=so def feat. pps-crew
TTITLE8=so def (rec #1) feat. pps-crew
TTITLE9=so def (rec #2) feat. pps-crew
TTITLE10=so def (rec #3) feat. pps-crew
TTITLE11=stop den scheiss
TTITLE12=bounce
TTITLE13=rapstart
EXTD=www.badboys.at
EXTT0=
EXTT1=
EXTT2=
EXTT3=
EXTT4=
EXTT5=
EXTT6=
EXTT7=
EXTT8=
EXTT9=
EXTT10=
EXTT11=
EXTT12=
EXTT13=alles rechte (c)opyright by badboys.at!
PLAYORDER=
